# xmcd CD database file
#
# Track frame offsets:
#	150
#	10771
#	26175
#	40662
#	64520
#	88907
#	109435
#	122999
#	145296
#	160698
#
# Disc length: 2556 seconds
#
# Revision: 0
# Processed by: cddbd v1.5.2PL0 Copyright (c) Steve Scherf et al.
# Submitted via: CDex 1.51
#
DISCID=8509fa0a
DTITLE=Raoul Ficel - Qui a tué Robert Johnson ?
DYEAR=2009
DGENRE=Blues
TTITLE0=Ficel Boogie
TTITLE1=Faut qu'on s'aime
TTITLE2=Ptêtre bien
TTITLE3=L'air de rien
TTITLE4=Tout seul
TTITLE5=Qui a tué Robert Johnson ?
TTITLE6=La nuit je bois
TTITLE7=Y'a des matins
TTITLE8=Des heures sup'
TTITLE9=Combien de temps ?
EXTD=YEAR: 2009
EXTT0=
EXTT1=
EXTT2=
EXTT3=
EXTT4=
EXTT5=
EXTT6=
EXTT7=
EXTT8=
EXTT9=
PLAYORDER=
